<?xml version="1.0" encoding="iso-8859-1"?>
<!-- Uploaded to: SVG Repo, www.svgrepo.com, Generator: SVG Repo Mixer Tools -->
<svg height="800px" width="800px" version="1.1" id="Layer_1" xmlns="http://www.w3.org/2000/svg" xmlns:xlink="http://www.w3.org/1999/xlink" 
	 viewBox="0 0 512 512" xml:space="preserve">
<path style="fill:#4A5058;" d="M256,504.006c-63.629,0-123.449-24.778-168.442-69.77c-44.992-44.993-69.77-104.812-69.77-168.442
	c0-47.166,13.765-92.77,39.81-131.879c7.34-11.024,22.228-14.01,33.253-6.669c11.024,7.34,14.009,22.228,6.668,33.253
	c-20.783,31.21-31.768,67.619-31.768,105.295c0,104.904,85.346,190.25,190.25,190.25s190.25-85.346,190.25-190.25
	c0-36.565-10.392-72.068-30.051-102.672c-19.166-29.834-46.152-53.687-78.046-68.981c-11.942-5.728-16.981-20.051-11.254-31.993
	c5.728-11.943,20.049-16.981,31.994-11.253c39.915,19.142,73.686,48.985,97.66,86.305c24.637,38.353,37.66,82.82,37.66,128.594
	c0,63.629-24.778,123.449-69.771,168.442C379.448,479.228,319.629,504.006,256,504.006z"/>
<path style="opacity:0.15;enable-background:new    ;" d="M338.153,94.14c31.894,15.296,58.881,39.148,78.046,68.981
	c19.659,30.603,30.051,66.107,30.051,102.672c0,49.702-19.166,95.005-50.485,128.93c37.68-34.784,61.32-84.563,61.32-139.765
	c0-36.565-10.392-72.068-30.051-102.672c-19.165-29.834-46.152-53.687-78.046-68.981c-11.942-5.727-16.981-20.051-11.254-31.993
	c0.045-0.094,0.095-0.183,0.141-0.277c-4.634,2.293-8.567,6.089-10.977,11.112C321.172,74.09,326.211,88.414,338.153,94.14z
	 M98.394,423.4c-44.992-44.993-69.77-104.812-69.77-168.442c0-46.05,13.128-90.606,37.987-129.087
	c-3.529,1.807-6.66,4.51-9.014,8.044c-26.043,39.109-39.81,84.713-39.81,131.879c0,63.629,24.778,123.449,69.77,168.442
	c44.993,44.992,104.812,69.77,168.442,69.77s123.448-24.778,168.441-69.77c1.811-1.811,3.578-3.656,5.323-5.514
	c-44.31,41.612-101.86,64.448-162.929,64.448C203.206,493.17,143.387,468.392,98.394,423.4z"/>
<circle style="fill:#7E858B;" cx="256.001" cy="51.565" r="43.569"/>
<path style="opacity:0.2;enable-background:new    ;" d="M263.616,87.512c-24.063,0-43.569-19.507-43.569-43.569
	c0-10.089,3.438-19.369,9.195-26.754c-10.229,7.972-16.814,20.4-16.814,34.374c0,24.062,19.507,43.569,43.569,43.569
	c13.974,0,26.402-6.586,34.374-16.814C282.986,84.074,273.706,87.512,263.616,87.512z"/>
<path style="fill:#E45D4C;" d="M117.151,48.578L117.151,48.578c-15.61,9.978-20.815,30.348-11.904,46.591l108.494,197.78
	c14.01,25.541,46.709,33.895,71.255,18.205l0,0c24.546-15.69,30.692-48.875,13.392-72.314L164.435,57.335
	C153.433,42.428,132.761,38.6,117.151,48.578z"/>
<path style="opacity:0.2;enable-background:new    ;" d="M296.897,299.253L296.897,299.253
	c-24.546,15.69-57.245,7.335-71.255-18.205L117.148,83.268c-6.226-11.349-5.553-24.708,0.738-35.134
	c-0.245,0.148-0.492,0.29-0.734,0.444l0,0c-15.61,9.978-20.815,30.348-11.904,46.592l108.494,197.78
	c14.01,25.541,46.709,33.895,71.255,18.206l0,0c5.649-3.611,10.31-8.156,13.947-13.287
	C298.274,298.342,297.595,298.807,296.897,299.253z"/>
<path d="M206.732,296.793c7.739,14.107,21.117,24.482,36.707,28.465c4.73,1.209,9.562,1.802,14.379,1.802
	c11.061,0,22.039-3.135,31.481-9.171c13.557-8.666,23.013-22.71,25.943-38.531c2.93-15.821-0.869-32.32-10.424-45.266
	L170.866,52.589c-13.451-18.226-38.936-22.945-58.02-10.746s-25.501,37.311-14.607,57.17L206.732,296.793z M121.456,55.313
	c4.504-2.879,9.573-4.262,14.6-4.262c8.387,0,16.649,3.853,21.946,11.031l133.953,181.505c7.038,9.536,9.725,21.206,7.567,32.861
	c-2.158,11.654-8.847,21.588-18.833,27.972c-9.987,6.384-21.811,8.284-33.293,5.349c-11.483-2.934-20.948-10.272-26.648-20.664
	L112.255,91.325C105.393,78.816,109.435,62.998,121.456,55.313z M255.997,103.125c28.432,0,51.563-23.132,51.563-51.563
	C307.559,23.131,284.429,0,255.997,0s-51.563,23.131-51.563,51.563C204.434,79.995,227.565,103.125,255.997,103.125z
	 M255.997,15.987c19.615,0,35.575,15.959,35.575,35.575s-15.96,35.575-35.575,35.575c-19.617,0-35.575-15.96-35.575-35.575
	C220.422,31.946,236.38,15.987,255.997,15.987z M463.279,132.879c-24.775-38.567-59.676-69.409-100.93-89.193
	c-15.896-7.622-35.033-0.891-42.657,15.005c-7.623,15.897-0.892,35.034,15.005,42.658c30.556,14.654,56.413,37.509,74.776,66.094
	c18.831,29.312,28.784,63.322,28.784,98.351c0,100.497-81.76,182.256-182.257,182.256S73.745,366.291,73.745,265.794
	c0-36.093,10.522-70.971,30.427-100.865c4.733-7.108,6.416-15.636,4.737-24.01c-1.68-8.374-6.52-15.593-13.628-20.326
	c-7.109-4.733-15.636-6.417-24.01-4.737c-8.374,1.68-15.593,6.52-20.326,13.628C24.024,169.91,9.794,217.045,9.794,265.794
	c0,65.764,25.61,127.591,72.112,174.094C128.408,486.39,190.236,512,256,512s127.591-25.61,174.094-72.112
	c46.502-46.502,72.112-108.331,72.112-174.094C502.206,218.485,488.745,172.523,463.279,132.879z M418.788,428.583
	c-43.483,43.483-101.295,67.43-162.788,67.43s-119.307-23.947-162.789-67.43s-67.43-101.296-67.43-162.789
	c0-45.585,13.303-89.656,38.469-127.448c2.367-3.553,5.976-5.974,10.164-6.814c1.058-0.212,2.121-0.317,3.176-0.317
	c3.12,0,6.172,0.917,8.828,2.686c3.553,2.367,5.974,5.976,6.814,10.163c0.84,4.188-0.002,8.451-2.368,12.005
	c-21.659,32.526-33.108,70.468-33.108,109.726c0,109.312,88.932,198.244,198.244,198.244s198.244-88.932,198.244-198.244
	c0-38.1-10.83-75.097-31.319-106.992c-19.966-31.081-48.085-55.932-81.315-71.869c-7.949-3.812-11.314-13.38-7.502-21.328
	c3.811-7.948,13.378-11.314,21.329-7.502c38.579,18.501,71.219,47.346,94.391,83.418c23.808,37.062,36.393,80.035,36.393,124.274
	C486.219,327.288,462.272,385.1,418.788,428.583z"/>
</svg>